<svg width="18" height="19" viewBox="0 0 18 19" fill="none" xmlns="http://www.w3.org/2000/svg">
<path d="M15.364 12.2825C14.3837 11.2478 13.217 10.4818 11.9439 10.0181C13.3074 9.02689 14.2031 7.36799 14.2031 5.49219C14.2031 2.4638 11.869 0 9 0C6.131 0 3.79688 2.4638 3.79688 5.49219C3.79688 7.36799 4.69262 9.02689 6.05609 10.0181C4.78308 10.4818 3.61631 11.2478 2.63605 12.2825C0.936176 14.0768 0 16.4625 0 19H1.40625C1.40625 14.5802 4.81279 10.9844 9 10.9844C13.1872 10.9844 16.5938 14.5802 16.5938 19H18C18 16.4625 17.0638 14.0768 15.364 12.2825ZM9 9.5C6.90641 9.5 5.20312 7.70213 5.20312 5.49219C5.20312 3.28225 6.90641 1.48438 9 1.48438C11.0936 1.48438 12.7969 3.28225 12.7969 5.49219C12.7969 7.70213 11.0936 9.5 9 9.5Z" fill="#474747"/>
</svg>
