<svg width="23" height="31" viewBox="0 0 23 31" fill="none" xmlns="http://www.w3.org/2000/svg">
<path d="M22.4409 7.91109C21.3646 4.43377 18.5688 1.61491 15.1444 0.554418C11.4979 -0.574833 7.69637 0.0381735 4.7146 2.23624C3.28586 3.28942 2.1003 4.67859 1.28616 6.25339C0.444719 7.88102 0 9.71343 0 11.5526C0 14.0615 0.793618 16.4457 2.29512 18.4475L11.5012 30.1904L20.6958 18.4625L20.7073 18.4475C22.9543 15.4516 23.5862 11.6111 22.4409 7.91109ZM19.2972 17.3786L11.5012 27.3236L3.70511 17.3786C2.43882 15.6869 1.76944 13.6725 1.76944 11.5526C1.76944 8.45499 3.26292 5.50464 5.76454 3.66055C8.2891 1.79954 11.5172 1.28353 14.6211 2.24467C17.4958 3.13493 19.8445 5.50665 20.7507 8.43423C21.7253 11.5831 21.1955 14.8427 19.2972 17.3786Z" fill="#474747"/>
<path d="M11.5012 5.3597C8.08642 5.3597 5.30826 8.13787 5.30826 11.5526C5.30826 14.9674 8.08642 17.7456 11.5012 17.7456C14.9159 17.7456 17.6941 14.9674 17.6941 11.5526C17.6941 8.13787 14.9159 5.3597 11.5012 5.3597ZM11.5012 15.9762C9.06207 15.9762 7.07764 13.9918 7.07764 11.5526C7.07764 9.11352 9.06201 7.12909 11.5012 7.12909C13.9404 7.12909 15.9247 9.11346 15.9247 11.5526C15.9247 13.9917 13.9403 15.9762 11.5012 15.9762Z" fill="#474747"/>
</svg>
