<svg width="28" height="21" viewBox="0 0 28 21" fill="none" xmlns="http://www.w3.org/2000/svg">
<path d="M27.9737 8.16885C27.9737 8.10975 28 8.04408 28 7.97842C28 7.91275 27.9737 7.85365 27.9737 7.79455V6.3893C27.9737 4.84615 26.7064 3.61163 25.1632 3.61163H24.3621V2.81707C24.3621 1.27392 23.1342 0 21.591 0H2.78426C1.24111 0 2.59383e-05 1.27392 2.59383e-05 2.81707V14.3611C-0.00654066 15.8912 1.23455 17.1323 2.76456 17.1388C2.77113 17.1388 2.7777 17.1388 2.78426 17.1388H3.54599V17.9334C3.55256 19.4831 4.80021 20.7439 6.34993 20.7505H25.1632C26.7129 20.7373 27.9672 19.4831 27.9737 17.9334V11.2486C27.9737 11.1895 28 11.1238 28 11.0647C28 11.0056 27.9737 10.94 27.9737 10.8809V8.16885ZM3.54599 6.3893V15.8255H2.78426C1.98314 15.8321 1.31991 15.1885 1.31335 14.3874C1.31335 14.3808 1.31335 14.3743 1.31335 14.3677V2.81707C1.31335 2.00281 1.96344 1.31332 2.78426 1.31332H21.5976C22.4184 1.31332 23.0554 2.00281 23.0554 2.81707V3.61163H6.34993C4.80678 3.61163 3.54599 4.84615 3.54599 6.3893ZM26.6604 17.9334C26.6538 18.7608 25.9906 19.4306 25.1632 19.4371H6.34993C5.52253 19.4306 4.85931 18.7608 4.85931 17.9334V11.6885H26.6604V17.9334ZM26.6604 10.3752H4.85931V8.66791H26.6604V10.3752ZM26.667 7.35459H26.6604H4.85931V6.3893C4.86588 5.57504 5.5291 4.91838 6.34993 4.92495H6.35649H25.1698C25.9906 4.92495 26.667 5.56848 26.667 6.3893V7.35459Z" fill="#474747"/>
<path d="M23.6171 13.4471C22.8684 12.9377 21.8864 12.9377 21.1315 13.4471C20.7633 13.1955 20.3337 13.0666 19.8918 13.0666C18.6644 13.0666 17.6763 14.0609 17.6763 15.2822C17.6763 16.5035 18.6644 17.5038 19.8918 17.5038C20.3337 17.5038 20.7633 17.3749 21.1315 17.1233C22.1442 17.8107 23.525 17.5406 24.2124 16.528C24.8998 15.5154 24.6297 14.1345 23.6171 13.4471ZM23.12 15.9266C22.7702 16.3439 22.1503 16.3991 21.733 16.0493C21.6839 16.0125 21.6471 15.9695 21.6041 15.9204C21.4875 15.7793 21.3095 15.6995 21.1315 15.7056C20.9474 15.7056 20.7756 15.7854 20.659 15.9266C20.4749 16.1536 20.1925 16.2887 19.898 16.2825C19.3518 16.2825 18.9037 15.8406 18.9037 15.2944C18.8976 14.7421 19.3395 14.3002 19.8918 14.3002C20.1864 14.3002 20.4687 14.4352 20.6528 14.6623C20.8676 14.9262 21.2543 14.9692 21.5182 14.7544C21.5489 14.7298 21.5796 14.6991 21.6102 14.6623C21.9601 14.245 22.5799 14.1897 22.9972 14.5396C23.4146 14.8894 23.4698 15.5092 23.12 15.9266Z" fill="#474747"/>
</svg>
