<svg width="25" height="23" viewBox="0 0 25 23" fill="none" xmlns="http://www.w3.org/2000/svg">
<g clip-path="url(#clip0)">
<path d="M7.67041 17.8898C6.28398 17.8898 5.16011 18.9649 5.16011 20.291C5.16011 21.6171 6.28403 22.6921 7.67041 22.6921C9.05684 22.6921 10.1807 21.6171 10.1807 20.291C10.1808 18.9649 9.05684 17.8898 7.67041 17.8898ZM7.67041 21.625C6.90018 21.625 6.27581 21.0277 6.27581 20.291C6.27581 19.5543 6.90018 18.957 7.67041 18.957C8.44064 18.957 9.06501 19.5543 9.06501 20.291C9.06506 21.0277 8.44064 21.625 7.67041 21.625Z" fill="black"/>
<path d="M18.2696 17.8898C16.8831 17.8898 15.7593 18.9649 15.7593 20.291C15.7593 21.6171 16.8832 22.6921 18.2696 22.6921C19.656 22.6921 20.7799 21.6171 20.7799 20.291C20.7799 18.9649 19.656 17.8898 18.2696 17.8898ZM18.2696 21.625C17.4994 21.625 16.875 21.0277 16.875 20.291C16.875 19.5543 17.4994 18.957 18.2696 18.957C19.0398 18.957 19.6642 19.5543 19.6642 20.291C19.6642 21.0277 19.0398 21.625 18.2696 21.625Z" fill="black"/>
<path d="M23.9317 3.88296C23.8156 3.76158 23.6566 3.68559 23.4855 3.6695L5.32748 3.42939L4.82542 1.96198C4.47172 0.981043 3.51138 0.31881 2.42664 0.307831H0.557851C0.249749 0.307831 0 0.546721 0 0.841427C0 1.13613 0.249749 1.37502 0.557851 1.37502H2.42664C3.03318 1.38784 3.56728 1.76037 3.76551 2.30883L7.30785 12.5272L7.02895 13.1408C6.71786 13.9081 6.81129 14.7718 7.27998 15.4619C7.74419 16.1398 8.52515 16.5581 9.37194 16.5825H20.2221C20.5302 16.5825 20.78 16.3436 20.78 16.0489C20.78 15.7542 20.5302 15.5153 20.2221 15.5153H9.37189C8.89369 15.5039 8.45351 15.2632 8.20039 14.875C7.95011 14.4915 7.8987 14.019 8.06094 13.5943L8.28411 13.1141L20.0268 11.9402C21.3167 11.8043 22.3777 10.9069 22.6767 9.69905L24.0155 4.33643C24.0758 4.18201 24.0438 4.00833 23.9317 3.88296ZM21.5888 9.45899C21.4077 10.2365 20.7176 10.8101 19.8874 10.873L8.28411 12.0202L5.69009 4.49658L22.7882 4.73669L21.5888 9.45899Z" fill="black"/>
</g>
<defs>
<clipPath id="clip0">
<rect width="24.0455" height="23" fill="white"/>
</clipPath>
</defs>
</svg>
