<svg width="28" height="28" viewBox="0 0 28 28" fill="none" xmlns="http://www.w3.org/2000/svg">
<path d="M25.6804 2.5876C22.6355 -0.862403 17.6793 -0.862403 14.6334 2.58682L14.0001 3.30307L13.3674 2.58715C10.3211 -0.862534 5.36561 -0.862143 2.31935 2.58715C0.823648 4.28102 0 6.52778 0 8.91291C0 11.2988 0.823648 13.5452 2.31957 15.2398L13.3237 27.6787C13.513 27.8932 13.7567 28 14 28C14.2433 28 14.4867 27.8928 14.6763 27.6783L25.6804 15.2398C27.176 13.5456 28 11.2989 28 8.9133C28 6.52778 27.176 4.28141 25.6804 2.5876ZM24.3266 13.5436L14 25.2172L3.67374 13.544C2.57173 12.2963 1.96492 10.6516 1.96492 8.9133C1.96492 7.17502 2.57173 5.5303 3.67374 4.28259C4.82322 2.98024 6.33292 2.32949 7.84295 2.32949C9.35331 2.32949 10.8637 2.98102 12.0131 4.28337L13.3231 5.76471C13.7023 6.19401 14.2973 6.19401 14.6766 5.76471L15.9869 4.28259C18.2861 1.67828 22.027 1.67828 24.3263 4.28259C25.4279 5.53037 26.0351 7.17502 26.0351 8.9133C26.0351 10.6516 25.4279 12.2959 24.3266 13.5436Z" fill="#474747"/>
</svg>
