<svg width="20" height="23" viewBox="0 0 20 23" fill="none" xmlns="http://www.w3.org/2000/svg">
<path d="M15.8531 15.8114L13.7866 15.1227L13.0447 13.639C13.7131 12.9587 14.1771 12.0586 14.3336 11.1198L14.4261 10.5652H15.2174C15.9366 10.5652 16.5217 9.98009 16.5217 9.26087V6.52174C16.5217 2.92565 13.5961 0 10 0C6.3947 0 3.47826 2.91726 3.47826 6.52174V9.26087C3.47826 9.82765 3.84178 10.311 4.34783 10.4904V11C4.34783 11.7192 4.93296 12.3043 5.65217 12.3043H6.034C6.22248 12.7138 6.46643 13.093 6.7633 13.4337C6.82487 13.5044 6.88909 13.573 6.95487 13.6398L6.21339 15.1227L4.14683 15.8115C1.744 16.6127 0 19.1422 0 21.8261C0 22.0662 0.194652 22.2609 0.434783 22.2609H19.5652C19.8053 22.2609 20 22.0662 20 21.8261C20 19.1422 18.256 16.6127 15.8531 15.8114ZM15.6522 9.26087C15.6522 9.50061 15.4571 9.69565 15.2174 9.69565H14.5538C14.6643 8.83956 14.738 7.92856 14.7676 7.0313C14.7685 7.006 14.7692 6.98139 14.77 6.95652H15.6522V9.26087ZM4.78261 9.69565C4.54287 9.69565 4.34783 9.50061 4.34783 9.26087V6.95652H5.23035C5.23178 7.00187 5.2333 7.04743 5.235 7.0933C5.23504 7.09487 5.23513 7.09639 5.23517 7.09796C5.23517 7.09809 5.23517 7.09822 5.23517 7.09835C5.26561 7.97104 5.3383 8.85839 5.4463 9.69561H4.78261V9.69565ZM5.65217 11.4348C5.41244 11.4348 5.21739 11.2397 5.21739 11V10.5652H5.57383L5.66635 11.12C5.684 11.2254 5.7057 11.3304 5.73078 11.4348H5.65217ZM5.21813 6.08696H4.36435C4.58457 3.173 7.01639 0.869565 10 0.869565C12.9703 0.869565 15.4129 3.1727 15.6356 6.08696H14.7819C14.7506 3.68578 12.7953 1.73913 10.3892 1.73913H9.61091C7.20487 1.73913 5.24939 3.68578 5.21813 6.08696ZM9.61087 2.6087H10.3891C12.3373 2.6087 13.9142 4.20222 13.913 6.14826C13.913 6.28509 13.912 6.40422 13.9097 6.51261C13.9097 6.514 13.9096 6.51543 13.9096 6.51687L13.3658 6.43917C11.8884 6.22822 10.4934 5.53074 9.43787 4.47517C9.3563 4.39365 9.24574 4.34783 9.13043 4.34783C7.96278 4.34783 6.84504 4.87983 6.10617 5.77861C6.28826 4.00822 7.78491 2.6087 9.61087 2.6087ZM6.63217 11.4348C6.41452 10.7107 6.16548 8.5803 6.11043 7.21509L6.69561 6.43483C7.23304 5.71848 8.06917 5.27339 8.95861 5.2223C10.1289 6.33604 11.6429 7.07152 13.2428 7.29996L13.8829 7.39143C13.8401 8.29948 13.7527 9.2107 13.6274 10.0487C13.6274 10.049 13.6273 10.0493 13.6273 10.0496C13.5875 10.319 13.5561 10.4924 13.4759 10.9767C13.2457 12.3578 12.2151 13.6067 10.8547 13.9469C10.2949 14.0867 9.70504 14.0866 9.14548 13.9469C8.29604 13.7345 7.51717 13.1468 7.01452 12.3043H7.90087C8.08035 12.8104 8.56361 13.1739 9.13043 13.1739H10C10.7207 13.1739 11.3043 12.5903 11.3043 11.8696C11.3043 11.1503 10.7192 10.5652 10 10.5652H9.13043C8.551 10.5652 8.07487 10.9395 7.90013 11.4348H6.63217ZM9.09387 14.8268C9.39209 14.8896 9.69613 14.9217 10 14.9217C10.2379 14.9217 10.4758 14.9018 10.711 14.8632L9.94274 15.6757L9.09387 14.8268ZM9.345 16.3078L7.96596 17.7661C7.5863 17.0394 7.26009 16.2831 6.99252 15.5089L7.51039 14.4731L9.345 16.3078ZM12.4159 14.3258L13.0074 15.5088C12.7394 16.2844 12.4131 17.041 12.0338 17.7668L10.5578 16.2908L12.4159 14.3258ZM8.69565 11.8696C8.69565 11.6295 8.89035 11.4348 9.13043 11.4348H10C10.2397 11.4348 10.4348 11.6298 10.4348 11.8696C10.4348 12.1097 10.24 12.3043 10 12.3043H9.13043C8.8907 12.3043 8.69565 12.1093 8.69565 11.8696ZM0.886957 21.3913C1.05926 19.2374 2.4927 17.2797 4.42183 16.6364L6.252 16.0265C6.5873 16.9537 7.0027 17.8548 7.48952 18.7108C7.49035 18.7123 7.49113 18.7138 7.49196 18.7152C7.49196 18.7153 7.492 18.7153 7.492 18.7153C7.8477 19.3409 8.24804 19.9523 8.68209 20.5327L9.21696 21.3913H0.886957ZM10 21.0037L9.41035 20.0571C9.40374 20.0465 9.3967 20.0362 9.38922 20.0262C9.03713 19.5565 8.7087 19.0653 8.40956 18.5626L9.96013 16.9229L11.594 18.5567C11.2928 19.0631 10.9633 19.5563 10.6109 20.0261C10.5896 20.0545 10.6198 20.0097 10 21.0037ZM10.783 21.3913L11.3179 20.5327C11.7538 19.9501 12.157 19.3338 12.5163 18.7009C12.5185 18.697 12.5205 18.6931 12.5227 18.6893C12.523 18.6888 12.5232 18.6884 12.5235 18.6879C13.0041 17.8401 13.4152 16.9467 13.748 16.0265L15.5781 16.6364C17.5073 17.2797 18.9407 19.2374 19.113 21.3913H10.783Z" fill="#474747"/>
</svg>
