<svg width="31" height="29" viewBox="0 0 31 29" fill="none" xmlns="http://www.w3.org/2000/svg">
<path d="M29.3295 15.4886H10.2158C9.67008 15.4886 9.22717 15.0457 9.22717 14.5C9.22717 13.9543 9.67008 13.5114 10.2158 13.5114H29.3295C29.8752 13.5114 30.3181 13.9543 30.3181 14.5C30.3181 15.0457 29.8752 15.4886 29.3295 15.4886Z" fill="#474747"/>
<path d="M15.4886 20.7613C15.2354 20.7613 14.9825 20.6652 14.7899 20.4714L9.51724 15.1988C9.13105 14.8124 9.13105 14.1863 9.51724 13.8001L14.7899 8.52746C15.176 8.14128 15.8021 8.14128 16.1886 8.52746C16.5747 8.91365 16.5747 9.53975 16.1886 9.92593L11.6145 14.5L16.1886 19.0742C16.5747 19.4603 16.5747 20.0864 16.1886 20.4726C15.9947 20.6652 15.7416 20.7613 15.4886 20.7613Z" fill="#474747"/>
<path d="M14.5 29C6.50527 29 0 22.4947 0 14.5C0 6.50527 6.50527 0 14.5 0C20.4989 0 25.7954 3.60913 27.9954 9.19576C28.1958 9.70311 27.9452 10.2766 27.4379 10.4781C26.9303 10.6761 26.3568 10.4294 26.1553 9.91938C24.2557 5.09473 19.6804 1.97726 14.5 1.97726C7.59527 1.97726 1.97726 7.59551 1.97726 14.5C1.97726 21.4045 7.59527 27.0227 14.5 27.0227C19.6804 27.0227 24.2557 23.9053 26.1553 19.0821C26.3556 18.5718 26.9291 18.3254 27.4379 18.5231C27.9452 18.7234 28.1958 19.2981 27.9954 19.8057C25.7954 25.3909 20.4989 29 14.5 29Z" fill="#474747"/>
</svg>
