<svg width="19" height="23" viewBox="0 0 19 23" fill="none" xmlns="http://www.w3.org/2000/svg">
<path d="M17.8235 18.3036C17.7559 18.2597 17.2471 17.9032 16.7376 16.8249C15.8019 14.8446 15.6055 12.0551 15.6055 10.0636C15.6055 10.055 15.6053 10.0464 15.605 10.0377C15.5948 7.40582 14.0188 5.137 11.7635 4.11902V2.56216C11.7635 1.14937 10.6161 0 9.20561 0H8.99362C7.58317 0 6.43568 1.14937 6.43568 2.56216V4.11893C4.17288 5.14019 2.59374 7.4206 2.59374 10.0636C2.59374 12.0551 2.39734 14.8446 1.46166 16.8249C0.952202 17.9032 0.443372 18.2596 0.37572 18.3036C0.0908255 18.4354 -0.0496453 18.74 0.0158957 19.0486C0.0820656 19.3603 0.373429 19.5752 0.691611 19.5752H5.63064C5.65822 21.4683 7.20326 23 9.09964 23C10.996 23 12.5411 21.4683 12.5686 19.5752H17.5077C17.8258 19.5752 18.1172 19.3603 18.1834 19.0486C18.2488 18.74 18.1084 18.4354 17.8235 18.3036ZM7.78338 2.56216C7.78338 1.89368 8.32631 1.34986 8.99367 1.34986H9.20565C9.87301 1.34986 10.4159 1.89368 10.4159 2.56216V3.68148C9.99062 3.59357 9.55034 3.5473 9.09946 3.5473C8.64871 3.5473 8.20857 3.59353 7.78343 3.68135V2.56216H7.78338ZM9.09964 21.6501C7.94636 21.6501 7.00565 20.724 6.97829 19.5753H11.2209C11.1936 20.7239 10.2529 21.6501 9.09964 21.6501ZM11.8129 18.2253C11.8128 18.2253 2.22726 18.2253 2.22726 18.2253C2.34384 18.0437 2.46248 17.838 2.5804 17.6055C3.48351 15.8247 3.94144 13.2872 3.94144 10.0636C3.94144 7.21481 6.25532 4.89716 9.09941 4.89716C11.9435 4.89716 14.2574 7.21481 14.2574 10.0659C14.2574 10.0742 14.2575 10.0824 14.2578 10.0907C14.2604 13.3014 14.7183 15.8297 15.6189 17.6055C15.7368 17.838 15.8555 18.0437 15.972 18.2253H11.8129Z" fill="#474747"/>
</svg>
