<svg width="17" height="21" viewBox="0 0 17 21" fill="none" xmlns="http://www.w3.org/2000/svg">
<path d="M14.3989 2.75139H12.4991V1.90147C12.4991 1.62649 12.1991 1.50151 11.9241 1.50151H10.4493C10.0993 0.501582 9.22437 0.00161859 8.22445 0.00161859C7.23552 -0.0355593 6.33603 0.570818 5.99961 1.50151H4.54972C4.27474 1.50151 3.99976 1.62649 3.99976 1.90147V2.75139H2.09986C0.973993 2.7634 0.0529199 3.65156 0 4.77623V19.1001C0 20.2001 0.999927 21 2.09986 21H14.3989C15.4989 21 16.4988 20.2001 16.4988 19.1001V4.77627C16.4459 3.65156 15.5248 2.7634 14.3989 2.75139ZM4.99964 2.50144H6.37455C6.61455 2.47215 6.80733 2.28957 6.84953 2.05147C6.99758 1.40677 7.56319 0.943985 8.22445 0.926568C8.87958 0.946425 9.43668 1.41065 9.57433 2.05147C9.61917 2.2978 9.82467 2.48273 10.0743 2.50144H11.4992V4.50129H4.99964V2.50144ZM15.4989 19.1002C15.4989 19.6502 14.9489 20.0001 14.3989 20.0001H2.09986C1.54989 20.0001 0.999927 19.6502 0.999927 19.1002V4.77627C1.05093 4.20382 1.5252 3.76185 2.09986 3.75137H3.99971V5.02628C4.02612 5.30638 4.26871 5.51591 4.54967 5.50127H11.9241C12.2102 5.51691 12.4604 5.31026 12.499 5.02628V3.75132H14.3989C14.9735 3.76185 15.4478 4.20377 15.4988 4.77623V19.1002H15.4989Z" fill="#474747"/>
<path d="M6.32455 11.1758C6.13703 10.9781 5.82573 10.967 5.62458 11.1508L4.02469 12.6757L3.34975 11.9757C3.16223 11.7781 2.85093 11.767 2.64978 11.9507C2.45614 12.1536 2.45614 12.4728 2.64978 12.6757L3.67468 13.7256C3.76339 13.8249 3.89153 13.8799 4.02464 13.8756C4.15651 13.8737 4.2823 13.8198 4.3746 13.7256L6.32445 11.8758C6.51776 11.6984 6.53068 11.398 6.3533 11.2047C6.34421 11.1946 6.3346 11.185 6.32455 11.1758Z" fill="#474747"/>
<path d="M13.499 12.2507H7.74947C7.47334 12.2507 7.24951 12.4745 7.24951 12.7507C7.24951 13.0268 7.47334 13.2506 7.74947 13.2506H13.499C13.7752 13.2506 13.999 13.0268 13.999 12.7507C13.999 12.4745 13.7752 12.2507 13.499 12.2507Z" fill="#474747"/>
<path d="M6.32455 7.1761C6.13703 6.97844 5.82573 6.96729 5.62458 7.15112L4.02469 8.67599L3.34975 7.97602C3.16223 7.77836 2.85093 7.76722 2.64978 7.95105C2.45614 8.15392 2.45614 8.47312 2.64978 8.67599L3.67468 9.72592C3.76339 9.82525 3.89153 9.88018 4.02464 9.87593C4.15651 9.87406 4.2823 9.82013 4.3746 9.72592L6.32445 7.87607C6.51776 7.69875 6.53068 7.39826 6.3533 7.205C6.34421 7.19491 6.3346 7.18529 6.32455 7.1761Z" fill="#474747"/>
<path d="M13.499 8.25098H7.74947C7.47334 8.25098 7.24951 8.47481 7.24951 8.75094C7.24951 9.02707 7.47334 9.2509 7.74947 9.2509H13.499C13.7752 9.2509 13.999 9.02707 13.999 8.75094C13.999 8.47481 13.7752 8.25098 13.499 8.25098Z" fill="#474747"/>
<path d="M6.32455 15.1755C6.13703 14.9778 5.82573 14.9667 5.62458 15.1505L4.02469 16.6754L3.34975 15.9754C3.16223 15.7777 2.85093 15.7666 2.64978 15.9504C2.45614 16.1533 2.45614 16.4725 2.64978 16.6754L3.67468 17.7253C3.76339 17.8246 3.89153 17.8796 4.02464 17.8753C4.15651 17.8734 4.2823 17.8195 4.3746 17.7253L6.32445 15.8754C6.51776 15.6981 6.53068 15.3976 6.3533 15.2044C6.34421 15.1943 6.3346 15.1847 6.32455 15.1755Z" fill="#474747"/>
<path d="M13.499 16.2504H7.74947C7.47334 16.2504 7.24951 16.4743 7.24951 16.7504C7.24951 17.0265 7.47334 17.2504 7.74947 17.2504H13.499C13.7752 17.2504 13.999 17.0265 13.999 16.7504C13.999 16.4743 13.7752 16.2504 13.499 16.2504Z" fill="#474747"/>
</svg>
