<svg width="19" height="19" viewBox="0 0 19 19" fill="none" xmlns="http://www.w3.org/2000/svg">
<path d="M19 18.1604L12.5607 11.7211C13.6123 10.4792 14.25 8.87611 14.25 7.12501C14.25 3.19604 11.0539 0 7.12501 0C3.19607 0 0 3.19604 0 7.12501C0 11.054 3.19604 14.25 7.12501 14.25C8.87611 14.25 10.4792 13.6123 11.7211 12.5607L18.1604 19L19 18.1604ZM7.12501 13.0625C3.85126 13.0625 1.18751 10.3988 1.18751 7.12501C1.18751 3.85126 3.85126 1.18751 7.12501 1.18751C10.3988 1.18751 13.0625 3.85126 13.0625 7.12501C13.0625 10.3988 10.3988 13.0625 7.12501 13.0625Z" fill="#474747"/>
</svg>
