<svg width="31" height="31" viewBox="0 0 31 31" fill="none" xmlns="http://www.w3.org/2000/svg">
<path d="M28.9783 12.1304H26.4551C26.2435 11.4397 25.9665 10.7725 25.6303 10.137L27.4128 8.3545C27.7942 7.97307 28.0045 7.46494 28.0045 6.92378C28.0045 6.3833 27.7942 5.87517 27.4128 5.49374L25.5056 3.58657C24.7434 2.82437 23.409 2.82235 22.6455 3.58657L20.863 5.36907C20.2282 5.03278 19.5603 4.75648 18.8696 4.5442V2.02174C18.8696 0.907087 17.9625 0 16.8478 0H14.1522C13.0375 0 12.1304 0.907087 12.1304 2.02174V4.54487C11.4397 4.75715 10.7725 5.03346 10.137 5.36974L8.35383 3.58724C7.56535 2.79876 6.28222 2.79876 5.49374 3.58724L3.58589 5.49441C2.79809 6.28289 2.79809 7.56602 3.58589 8.3545L5.36839 10.1377C5.03211 10.7725 4.7558 11.4403 4.54352 12.1311H2.02174C0.907087 12.1311 0 13.0382 0 14.1528V16.8485C0 17.9625 0.907087 18.8696 2.02174 18.8696H4.54487C4.75715 19.5603 5.03346 20.2275 5.36974 20.863L3.58724 22.6462C2.79876 23.4347 2.79876 24.7178 3.58724 25.5063L5.49441 27.4141C6.28289 28.2019 7.56602 28.2019 8.3545 27.4141L10.1377 25.6316C10.7725 25.9679 11.4403 26.2442 12.1311 26.4565V28.9783C12.1311 30.0929 13.0382 31 14.1528 31H16.8485C17.9632 31 18.8702 30.0929 18.8702 28.9783V26.4551C19.561 26.2428 20.2288 25.9665 20.8637 25.6303L22.6462 27.4134C23.4104 28.177 24.7447 28.1756 25.5063 27.4134L27.4134 25.5063C27.7949 25.1248 28.0051 24.6167 28.0051 24.0762C28.0051 23.5351 27.7949 23.0276 27.4134 22.6462L25.6309 20.863C25.9672 20.2282 26.2435 19.5603 26.4558 18.8696H28.9783C30.0929 18.8696 31 17.9625 31 16.8478V14.1522C31 13.0375 30.0929 12.1304 28.9783 12.1304ZM29.6522 16.8478C29.6522 17.2192 29.3503 17.5217 28.9783 17.5217H25.9457C25.6383 17.5217 25.3701 17.73 25.2933 18.0272C25.0547 18.9471 24.6915 19.8252 24.2123 20.6366C24.0567 20.9014 24.0991 21.2384 24.3161 21.4554L26.4592 23.5991C26.5859 23.7258 26.656 23.8949 26.656 24.0762C26.656 24.2575 26.5859 24.4267 26.4592 24.5533L24.552 26.4605C24.2986 26.7139 23.8518 26.7139 23.5977 26.4605L21.4547 24.3175C21.2377 24.0998 20.9007 24.058 20.6352 24.2137C19.8252 24.6922 18.9471 25.0561 18.0265 25.294C17.73 25.3701 17.5217 25.6383 17.5217 25.9457V28.9783C17.5217 29.3496 17.2198 29.6522 16.8478 29.6522H14.1522C13.7808 29.6522 13.4783 29.3496 13.4783 28.9783V25.9457C13.4783 25.6383 13.27 25.3701 12.9728 25.2933C12.0529 25.0554 11.1748 24.6922 10.3634 24.213C10.257 24.1497 10.139 24.1193 10.0211 24.1193C9.84654 24.1193 9.67402 24.1867 9.54396 24.3168L7.40091 26.4598C7.13741 26.7227 6.71015 26.7227 6.44665 26.4598L4.53948 24.5527C4.27598 24.2892 4.27598 23.8612 4.53948 23.5984L6.68252 21.4554C6.9002 21.2377 6.94265 20.9007 6.7863 20.6366C6.30783 19.8252 5.94391 18.9477 5.70602 18.0272C5.62987 17.73 5.36165 17.5217 5.05435 17.5217H2.02174C1.65041 17.5217 1.34783 17.2192 1.34783 16.8478V14.1522C1.34783 13.7808 1.65041 13.4783 2.02174 13.4783H5.05435C5.36165 13.4783 5.62987 13.27 5.7067 12.9728C5.94459 12.0529 6.30783 11.1748 6.78698 10.3634C6.94333 10.0986 6.90087 9.76163 6.6832 9.54463L4.54015 7.40159C4.27733 7.13876 4.27733 6.71083 4.54015 6.44733L6.44733 4.54015C6.71083 4.27665 7.13809 4.27733 7.40159 4.54015L9.54463 6.6832C9.7623 6.90087 10.0986 6.944 10.3634 6.78698C11.1748 6.3085 12.0523 5.94459 12.9728 5.7067C13.27 5.62987 13.4783 5.36165 13.4783 5.05435V2.02174C13.4783 1.65041 13.7808 1.34783 14.1522 1.34783H16.8478C17.2198 1.34783 17.5217 1.65041 17.5217 2.02174V5.05435C17.5217 5.36165 17.73 5.62987 18.0272 5.7067C18.9477 5.94459 19.8258 6.3085 20.6359 6.78698C20.9014 6.94333 21.2384 6.90154 21.4554 6.6832L23.5984 4.54015C23.8525 4.28541 24.2993 4.28609 24.5527 4.54015L26.4598 6.44733C26.5865 6.57402 26.6566 6.74385 26.6566 6.92446C26.6566 7.10507 26.5865 7.27489 26.4598 7.40159L24.3168 9.54463C24.0998 9.7623 24.0567 10.0993 24.213 10.3634C24.6922 11.1748 25.0554 12.0523 25.294 12.9728C25.3701 13.27 25.6383 13.4783 25.9457 13.4783H28.9783C29.3503 13.4783 29.6522 13.7808 29.6522 14.1522V16.8478Z" fill="#474747"/>
<path d="M15.5 9.43478C12.1561 9.43478 9.43481 12.156 9.43481 15.5C9.43481 18.844 12.1561 21.5652 15.5 21.5652C18.8447 21.5652 21.5652 18.844 21.5652 15.5C21.5652 12.156 18.8447 9.43478 15.5 9.43478ZM15.5 20.2174C12.8987 20.2174 10.7826 18.1013 10.7826 15.5C10.7826 12.8987 12.8987 10.7826 15.5 10.7826C18.1007 10.7826 20.2174 12.8987 20.2174 15.5C20.2174 18.1013 18.1007 20.2174 15.5 20.2174Z" fill="#474747"/>
</svg>
