<svg xmlns="http://www.w3.org/2000/svg" width="12.002" height="8" viewBox="0 0 12.002 8"><defs><style>.a{fill:#fff;}</style></defs><path class="a" d="M8.75,4H13.3l.108.014.113.033.1.048.039.023.049.034.076.067.084.1.058.1.041.105.023.1L14,4.75v4.5a.75.75,0,0,1-1.493.1l-.007-.1V6.561L8.28,10.784a.75.75,0,0,1-.977.073l-.084-.073L5.749,9.311,3.28,11.78A.75.75,0,0,1,2.147,10.8l.073-.084,3-3A.75.75,0,0,1,6.2,7.647l.084.073L7.75,9.193,11.441,5.5H8.75a.75.75,0,0,1-.743-.648L8,4.75A.75.75,0,0,1,8.75,4Z" transform="translate(-2 -4)"/></svg>