<svg width="28" height="28" viewBox="0 0 28 28" fill="none" xmlns="http://www.w3.org/2000/svg">
<path d="M23.3283 0.63071C22.8822 0.63071 22.5207 0.992357 22.5207 1.43839V2.88968C20.0875 1.01576 17.122 0 14 0C10.2604 0 6.74476 1.45627 4.10046 4.10046C1.45622 6.74471 0 10.2605 0 14C0 17.7396 1.45627 21.2553 4.10057 23.8996C4.25829 24.0574 4.46501 24.1362 4.67167 24.1362C4.87833 24.1362 5.08511 24.0573 5.24283 23.8996C5.55821 23.5842 5.55821 23.0728 5.24283 22.7573C2.90363 20.4182 1.61536 17.3081 1.61536 14C1.61536 7.17116 7.1711 1.61541 14 1.61541C16.5861 1.61541 19.0511 2.40275 21.1215 3.86399H20.0976C19.6515 3.86399 19.2899 4.22564 19.2899 4.67167C19.2899 5.1177 19.6515 5.47935 20.0976 5.47935H23.3283C23.3541 5.47935 23.3796 5.47782 23.4048 5.47547C23.4051 5.47547 23.4053 5.47547 23.4056 5.47541C23.428 5.47328 23.45 5.46978 23.4719 5.4659C23.4757 5.46518 23.4796 5.46486 23.4834 5.46415C23.5047 5.45999 23.5256 5.45458 23.5463 5.44878C23.5508 5.44752 23.5553 5.44665 23.5598 5.44528C23.5799 5.43926 23.5996 5.4321 23.619 5.42455C23.6241 5.42264 23.6292 5.421 23.6343 5.41897C23.6534 5.41115 23.6719 5.40224 23.6903 5.393C23.6955 5.39037 23.7009 5.38813 23.7061 5.3854C23.7253 5.37522 23.7438 5.36396 23.7621 5.35226C23.766 5.34974 23.7701 5.34755 23.7741 5.34498C23.8644 5.28504 23.942 5.2075 24.0019 5.11715C24.0045 5.11322 24.0067 5.10906 24.0092 5.10507C24.0208 5.0868 24.032 5.06832 24.0423 5.04918C24.045 5.04393 24.0473 5.03857 24.0499 5.03332C24.0591 5.015 24.068 4.99657 24.0759 4.97748C24.0779 4.9724 24.0795 4.96726 24.0814 4.96212C24.089 4.9427 24.0961 4.92307 24.1022 4.90294C24.1035 4.89862 24.1043 4.89419 24.1055 4.88987C24.1113 4.86904 24.1168 4.84798 24.121 4.82649C24.1216 4.8231 24.122 4.8196 24.1226 4.81621C24.1311 4.76918 24.1362 4.72105 24.1362 4.67162V1.43839C24.136 0.992357 23.7744 0.63071 23.3283 0.63071Z" fill="#474747"/>
<path d="M23.3645 14.4393C22.5093 12.972 21.2695 11.7646 19.7884 10.8948C20.1431 10.6307 20.2199 10.1298 19.9588 9.77165C19.696 9.41115 19.1908 9.33191 18.8303 9.59468L18.1328 10.1031C17.8496 9.99538 17.5608 9.89836 17.2668 9.81294L17.5631 9.17091C17.7501 8.76595 17.5733 8.28601 17.1683 8.09904C16.7633 7.91206 16.2834 8.08887 16.0964 8.49383L15.647 9.46721C15.3698 9.42832 15.0899 9.39868 14.8074 9.37949V8.46692C14.8074 8.02083 14.4458 7.65924 13.9997 7.65924C13.5537 7.65924 13.1921 8.02089 13.1921 8.46692V9.37949C12.9096 9.39868 12.6297 9.42832 12.3525 9.46721L11.9031 8.49383C11.7161 8.08887 11.2362 7.91206 10.8312 8.09904C10.4262 8.28607 10.2494 8.7659 10.4364 9.17091L10.7327 9.81294C10.4388 9.89836 10.15 9.99532 9.86669 10.1031L9.16915 9.59468C8.80871 9.33186 8.3034 9.41115 8.04068 9.77165C7.7796 10.1299 7.85655 10.6307 8.21114 10.8948C6.72999 11.7647 5.49011 12.972 4.63497 14.4393C4.48846 14.6907 4.48846 15.0014 4.63497 15.2527C6.4641 18.3912 10.0524 20.3408 13.9995 20.3408C17.9466 20.3408 21.535 18.3912 23.3641 15.2527C23.5111 15.0014 23.5111 14.6907 23.3645 14.4393ZM14 18.7255C10.8019 18.7255 7.89226 17.2505 6.28516 14.846C7.18181 13.5044 8.48419 12.4527 10.0156 11.7846C10.0535 11.7717 10.0905 11.756 10.1263 11.7375C10.7355 11.4809 11.3796 11.2848 12.0481 11.1546C12.0482 11.1546 12.0483 11.1546 12.0484 11.1546C12.6804 11.0315 13.3338 10.9667 13.9999 10.9667C14.6661 10.9667 15.3194 11.0315 15.9514 11.1546C15.9515 11.1546 15.9516 11.1546 15.9517 11.1546C16.6201 11.2849 17.2643 11.481 17.8733 11.7374C17.9092 11.756 17.9463 11.7717 17.9843 11.7847C19.5157 12.4528 20.818 13.5045 21.7147 14.846C20.1077 17.2506 17.198 18.7255 14 18.7255Z" fill="#474747"/>
<path d="M18.5158 26.4257C18.3895 25.9979 17.9404 25.7535 17.5125 25.8797C17.3122 25.9388 17.1084 25.9933 16.9067 26.0418C16.473 26.146 16.2058 26.5821 16.3099 27.0158C16.3989 27.3861 16.7298 27.6351 17.0946 27.6351C17.157 27.6351 17.2205 27.6277 17.2839 27.6125C17.5124 27.5576 17.7431 27.4959 17.9698 27.429C18.3975 27.3028 18.642 26.8535 18.5158 26.4257Z" fill="#474747"/>
<path d="M21.576 24.8313C21.3428 24.4512 20.8455 24.332 20.4652 24.5652C20.288 24.6741 20.1055 24.7797 19.9228 24.8794C19.5312 25.093 19.387 25.5837 19.6007 25.9752C19.7473 26.244 20.0244 26.3962 20.3103 26.3962C20.4411 26.3962 20.5737 26.3644 20.6966 26.2973C20.9031 26.1846 21.1094 26.0651 21.3099 25.9421C21.6902 25.7089 21.8093 25.2116 21.576 24.8313Z" fill="#474747"/>
<path d="M27.6112 10.7108C27.5561 10.4818 27.4942 10.2511 27.4275 10.0253C27.301 9.59747 26.8518 9.35335 26.424 9.47967C25.9962 9.60617 25.7519 10.0555 25.8784 10.4832C25.9374 10.6828 25.992 10.8866 26.0408 11.089C26.13 11.4591 26.4607 11.7078 26.8254 11.7078C26.888 11.7078 26.9516 11.7004 27.0152 11.6851C27.4487 11.5808 27.7157 11.1445 27.6112 10.7108Z" fill="#474747"/>
<path d="M14.318 26.3806C14.11 26.3858 13.897 26.3858 13.6891 26.3808C13.2433 26.3716 12.8727 26.7222 12.8615 27.1681C12.8504 27.6141 13.2029 27.9845 13.6489 27.9956C13.7651 27.9985 13.8831 28 13.9999 28C14.1193 28 14.24 27.9985 14.3588 27.9955C14.8048 27.9842 15.1571 27.6136 15.1459 27.1677C15.1346 26.7217 14.763 26.3701 14.318 26.3806Z" fill="#474747"/>
<path d="M8.08132 24.8816C7.89823 24.7818 7.71546 24.6761 7.53805 24.5673C7.15781 24.3342 6.66048 24.4534 6.4273 24.8336C6.19411 25.2139 6.31338 25.7112 6.69363 25.9444C6.89438 26.0675 7.10116 26.1872 7.30826 26.3C7.43103 26.3669 7.56343 26.3986 7.69408 26.3986C7.98015 26.3986 8.25741 26.2463 8.40398 25.9773C8.61748 25.5857 8.47294 25.0951 8.08132 24.8816Z" fill="#474747"/>
<path d="M11.0992 26.0432C10.8963 25.9946 10.6922 25.9401 10.4927 25.8812C10.0649 25.7552 9.61581 25.9997 9.4897 26.4276C9.36359 26.8555 9.60826 27.3046 10.0361 27.4307C10.2619 27.4972 10.4928 27.5588 10.7223 27.6139C10.7856 27.6291 10.8491 27.6365 10.9114 27.6365C11.2763 27.6365 11.6072 27.3874 11.6962 27.017C11.8002 26.5833 11.533 26.1473 11.0992 26.0432Z" fill="#474747"/>
<path d="M27.0179 16.2986C26.5841 16.1947 26.1482 16.4622 26.0443 16.896C25.9958 17.0985 25.9414 17.3025 25.8827 17.5021C25.7567 17.9301 26.0016 18.379 26.4295 18.5049C26.5056 18.5274 26.5823 18.538 26.6579 18.538C27.0069 18.538 27.3288 18.31 27.4324 17.9581C27.4989 17.7322 27.5604 17.5014 27.6153 17.2722C27.7192 16.8383 27.4517 16.4025 27.0179 16.2986Z" fill="#474747"/>
<path d="M24.1212 22.5002C23.7978 22.193 23.2866 22.206 22.9793 22.5294C22.8357 22.6805 22.6864 22.8298 22.5354 22.9735C22.2123 23.281 22.1995 23.7922 22.507 24.1154C22.6659 24.2823 22.8789 24.3663 23.0924 24.3663C23.2923 24.3663 23.4927 24.2925 23.649 24.1438C23.8195 23.9815 23.9882 23.8128 24.1504 23.6421C24.4576 23.3187 24.4446 22.8075 24.1212 22.5002Z" fill="#474747"/>
<path d="M26.2947 7.29853C26.1819 7.09208 26.0622 6.88553 25.9389 6.6846C25.7056 6.30447 25.2082 6.18542 24.828 6.41882C24.4478 6.65217 24.3288 7.14956 24.5622 7.52974C24.6713 7.70748 24.7772 7.89019 24.8769 8.07285C25.0237 8.34147 25.3006 8.49356 25.5865 8.49356C25.7174 8.49356 25.8501 8.46167 25.973 8.39452C26.3645 8.18069 26.5085 7.69003 26.2947 7.29853Z" fill="#474747"/>
<path d="M25.9799 19.5907C25.5882 19.3774 25.0977 19.5219 24.8843 19.9137C24.7846 20.0967 24.6789 20.2798 24.5698 20.4579C24.3369 20.8383 24.4565 21.3356 24.837 21.5685C24.9685 21.649 25.1141 21.6874 25.2579 21.6874C25.5297 21.6874 25.7952 21.5502 25.9476 21.3013C26.0708 21.1001 26.1904 20.8931 26.3029 20.6863C26.5163 20.2946 26.3717 19.804 25.9799 19.5907Z" fill="#474747"/>
<path d="M27.9953 13.6374C27.984 13.1914 27.6123 12.8418 27.1674 12.8505C26.7214 12.8619 26.3691 13.2326 26.3805 13.6785C26.3832 13.7849 26.3846 13.893 26.3846 14C26.3846 14.1022 26.3834 14.2054 26.3809 14.307C26.3701 14.753 26.7229 15.1232 27.1688 15.1341C27.1755 15.1342 27.1821 15.1343 27.1887 15.1343C27.6257 15.1343 27.9851 14.7854 27.9958 14.3461C27.9985 14.2316 28 14.1151 28 14C27.9999 13.8794 27.9983 13.7574 27.9953 13.6374Z" fill="#474747"/>
<path d="M14 11.9159C12.3843 11.9159 11.0698 13.2303 11.0698 14.846C11.0698 16.4618 12.3842 17.7763 14 17.7763C15.6157 17.7763 16.9301 16.4618 16.9301 14.846C16.9301 13.2303 15.6157 11.9159 14 11.9159ZM14 16.1608C13.275 16.1608 12.6852 15.571 12.6852 14.846C12.6852 14.1211 13.275 13.5313 14 13.5313C14.7249 13.5313 15.3147 14.1211 15.3147 14.846C15.3147 15.571 14.725 16.1608 14 16.1608Z" fill="#474747"/>
</svg>
